<?xml version="1.0" standalone="no"?>
<!DOCTYPE svg PUBLIC "-//W3C//DTD SVG 20010904//EN"
 "http://www.w3.org/TR/2001/REC-SVG-20010904/DTD/svg10.dtd">
<svg version="1.0" xmlns="http://www.w3.org/2000/svg"
 width="200.000000pt" height="200.000000pt" viewBox="0 0 200.000000 200.000000"
 preserveAspectRatio="xMidYMid meet">

<g transform="translate(0.000000,200.000000) scale(0.100000,-0.100000)"
fill="#000000" stroke="none">
<path d="M810 1900 c0 -16 4 -30 8 -30 5 0 7 14 4 30 -2 17 -6 30 -8 30 -2 0
-4 -13 -4 -30z"/>
<path d="M849 1902 c-3 -20 -2 -29 4 -23 5 5 7 19 5 32 -3 20 -5 19 -9 -9z"/>
<path d="M909 1922 c8 -6 12 -19 8 -32 -4 -16 -3 -20 4 -13 15 15 7 45 -11 50
-12 4 -13 3 -1 -5z"/>
<path d="M942 1900 c0 -19 2 -27 5 -17 2 9 2 25 0 35 -3 9 -5 1 -5 -18z"/>
<path d="M1008 1923 c12 -2 22 -9 22 -15 0 -6 -9 -8 -20 -5 -11 3 -20 1 -20
-4 0 -5 9 -9 19 -9 11 0 22 -6 24 -12 3 -7 4 1 3 17 -1 24 -6 30 -26 32 -22 1
-23 1 -2 -4z"/>
<path d="M1062 1905 c-7 -14 -12 -27 -12 -28 0 -1 11 -2 25 -2 20 0 24 4 19
20 -10 34 -20 37 -32 10z"/>
<path d="M1111 1893 c1 -33 2 -35 8 -13 l7 25 8 -23 c4 -13 10 -21 13 -19 5 6
-25 67 -32 67 -3 0 -5 -17 -4 -37z"/>
<path d="M1207 1923 c-4 -3 -7 -11 -7 -17 0 -6 5 -5 12 2 6 6 9 14 7 17 -3 3
-9 2 -12 -2z"/>
<path d="M1156 1903 c-6 -14 -5 -15 5 -6 7 7 10 15 7 18 -3 3 -9 -2 -12 -12z"/>
<path d="M1260 1908 c0 -9 -3 -25 -6 -35 -5 -17 -5 -17 6 1 10 15 14 16 21 5
7 -11 9 -11 9 3 0 9 3 18 8 21 4 2 1 2 -7 0 -8 -2 -18 2 -23 9 -6 10 -8 9 -8
-4z"/>
<path d="M690 1901 c0 -5 6 -12 13 -14 9 -4 9 -8 -1 -15 -11 -7 -8 -11 12 -14
l25 -5 -20 28 c-21 30 -29 35 -29 20z"/>
<path d="M741 1884 c0 -11 3 -14 6 -6 3 7 2 16 -1 19 -3 4 -6 -2 -5 -13z"/>
<path d="M1208 1892 c-10 -2 -18 -7 -18 -12 0 -5 7 -7 16 -3 9 3 20 0 25 -8 5
-8 9 -9 9 -4 0 19 -15 31 -32 27z"/>
<path d="M1316 1863 c-4 -9 -4 -18 -1 -21 3 -3 5 0 5 6 0 19 28 14 32 -5 3
-14 5 -13 10 5 4 13 4 21 1 18 -3 -3 -14 -1 -23 4 -13 7 -20 5 -24 -7z"/>
<path d="M1381 1843 c-10 -26 -10 -27 4 -9 8 11 15 23 15 28 0 15 -7 8 -19
-19z"/>
<path d="M646 1853 c5 -5 12 -12 16 -18 4 -6 8 -2 8 8 0 9 -7 17 -17 17 -9 0
-12 -3 -7 -7z"/>
<path d="M1416 1852 c-3 -5 2 -16 12 -23 15 -13 16 -12 3 4 -12 15 -11 17 2
17 8 0 18 -5 20 -10 3 -6 4 -5 3 2 -3 16 -32 23 -40 10z"/>
<path d="M562 1818 c-2 -30 -2 -31 11 -14 9 13 19 16 28 11 8 -5 5 1 -5 13
-26 30 -31 28 -34 -10z"/>
<path d="M613 1840 c2 -8 12 -16 23 -17 13 -2 15 -1 4 4 -8 3 -19 11 -23 17
-6 7 -7 6 -4 -4z"/>
<path d="M1464 1803 c-13 -21 -14 -25 -2 -15 12 10 17 10 27 -1 6 -8 8 -17 4
-20 -3 -4 -3 -7 0 -7 3 0 11 8 16 19 9 15 7 18 -7 17 -10 0 -16 6 -16 17 2 23
-1 22 -22 -10z"/>
<path d="M490 1804 c0 -6 9 -19 20 -29 16 -15 23 -16 33 -6 9 10 9 11 -4 6
-11 -4 -23 2 -33 17 -9 12 -16 18 -16 12z"/>
<path d="M731 1794 c-199 -53 -340 -199 -386 -400 -14 -58 -16 -130 -13 -478
4 -391 5 -414 26 -477 58 -174 208 -312 383 -354 92 -21 438 -21 522 1 193 50
347 206 392 396 22 92 21 825 0 917 -46 192 -197 345 -391 396 -80 21 -455 20
-533 -1z m528 -9 c91 -22 176 -70 246 -140 72 -73 109 -138 135 -241 18 -70
20 -111 20 -468 0 -318 -3 -403 -15 -451 -50 -197 -196 -341 -394 -391 -52
-13 -104 -15 -280 -12 -191 4 -223 7 -276 27 -185 67 -318 232 -344 424 -14
103 -14 765 0 843 35 193 197 362 392 410 78 19 434 18 516 -1z"/>
<path d="M794 1780 c-194 -28 -353 -161 -413 -346 -22 -68 -22 -78 -19 -509 3
-432 3 -441 26 -497 50 -122 138 -220 253 -277 104 -52 198 -66 416 -59 145 5
178 9 240 31 149 52 268 170 320 318 l24 71 -1 421 c0 268 -5 437 -12 466 -40
169 -170 308 -337 362 -57 19 -92 22 -256 24 -104 1 -213 -1 -241 -5z m487
-40 c164 -50 293 -192 329 -360 8 -38 10 -180 8 -470 -3 -396 -4 -418 -24
-472 -52 -137 -164 -245 -303 -294 -61 -22 -81 -24 -281 -24 -148 0 -231 4
-265 14 -176 47 -314 190 -350 363 -18 83 -21 820 -4 893 26 114 111 233 210
296 24 15 73 38 109 51 60 21 81 23 286 23 193 0 230 -3 285 -20z"/>
<path d="M872 1698 c-28 -28 1 -97 35 -84 8 3 19 6 24 6 5 0 9 9 9 19 0 21
-26 36 -35 21 -4 -6 -1 -10 4 -10 6 0 11 -4 11 -10 0 -5 -9 -10 -20 -10 -15 0
-20 7 -20 29 0 36 15 48 37 29 14 -11 16 -11 11 2 -6 19 -40 24 -56 8z"/>
<path d="M960 1663 c0 -55 5 -54 14 5 4 26 2 42 -4 42 -5 0 -10 -21 -10 -47z"/>
<path d="M991 1658 c1 -29 4 -42 6 -28 7 40 19 44 33 11 18 -45 30 -38 30 17
l-1 47 -13 -30 -12 -30 -12 33 c-17 49 -32 39 -31 -20z"/>
<path d="M771 1669 c0 -19 4 -43 9 -54 7 -17 9 -14 9 13 1 19 5 31 11 27 18
-11 10 11 -10 30 -20 18 -20 17 -19 -16z"/>
<path d="M817 1667 c-3 -20 0 -37 9 -47 12 -12 14 -9 14 27 0 51 -16 65 -23
20z"/>
<path d="M1078 1655 l-3 -45 35 1 c30 1 32 2 11 8 -33 9 -39 31 -9 31 l23 1
-25 14 c-19 10 -21 15 -10 18 8 3 22 8 30 10 8 3 1 6 -16 6 -31 1 -32 -1 -36
-44z"/>
<path d="M1156 1669 c-10 -51 -8 -56 24 -61 17 -3 30 -1 30 4 0 4 -9 8 -20 8
-27 0 -25 28 3 33 l22 4 -22 2 c-32 2 -29 21 3 21 14 0 23 4 19 10 -3 6 -17
10 -29 10 -18 0 -25 -7 -30 -31z"/>
<path d="M693 1670 c-27 -11 -27 -10 -6 -55 18 -39 30 -42 59 -20 18 15 18 15
-8 9 -30 -7 -40 12 -13 22 8 4 15 10 15 15 0 6 -8 6 -19 0 -28 -15 -35 1 -9
21 25 19 17 22 -19 8z"/>
<path d="M1247 1640 c-8 -22 -12 -40 -7 -40 4 0 10 7 14 15 8 22 38 7 31 -16
-4 -11 -2 -19 4 -19 6 0 11 7 11 15 0 8 6 24 13 36 10 17 9 22 -7 35 -31 22
-42 17 -59 -26z m48 12 c0 -18 -20 -15 -23 4 -3 10 1 15 10 12 7 -3 13 -10 13
-16z"/>
<path d="M1340 1610 c-12 -17 -20 -34 -18 -39 2 -5 15 9 30 30 15 22 24 39 19
39 -5 0 -19 -14 -31 -30z"/>
<path d="M1370 1575 c-35 -36 -32 -49 3 -18 18 17 19 17 12 -22 l-7 -40 36 34
c37 35 42 59 6 26 -23 -20 -24 -17 -10 19 14 39 -3 39 -40 1z"/>
<path d="M540 1541 c0 -6 13 -25 30 -43 27 -31 29 -31 30 -11 0 12 8 26 17 32
23 13 17 17 -34 26 -28 4 -43 3 -43 -4z m50 -21 c0 -5 -4 -10 -9 -10 -6 0 -13
5 -16 10 -3 6 1 10 9 10 9 0 16 -4 16 -10z"/>
<path d="M803 1541 c-85 -22 -170 -101 -194 -180 -7 -23 -9 -176 -7 -436 3
-454 1 -439 90 -522 68 -62 96 -68 313 -68 172 0 194 2 235 21 66 31 106 68
135 128 l26 53 -1 394 c0 431 -3 451 -59 520 -16 19 -53 48 -82 64 -54 29 -55
30 -239 32 -102 1 -199 -2 -217 -6z m432 -45 c54 -25 98 -70 124 -126 14 -30
16 -90 16 -435 0 -391 0 -401 -22 -440 -25 -47 -64 -85 -113 -111 -30 -16 -63
-19 -214 -22 -121 -3 -194 0 -223 9 -66 18 -117 60 -147 121 l-25 53 -7 367
c-7 402 -4 438 47 507 62 86 107 100 334 100 168 1 183 -1 230 -23z"/>
<path d="M906 1474 c-19 -19 -18 -3 -16 -250 1 -136 -2 -204 -9 -209 -8 -4
-11 51 -11 187 0 214 -6 238 -59 238 -49 0 -51 -9 -51 -229 0 -112 -3 -201 -7
-198 -3 4 -8 76 -10 159 -4 126 -7 155 -21 166 -21 16 -37 15 -57 -4 -14 -14
-15 -54 -13 -349 3 -320 4 -335 24 -362 11 -15 36 -38 54 -51 32 -21 42 -22
242 -22 235 0 261 6 298 65 18 29 20 49 20 193 0 153 -1 162 -22 182 -17 16
-35 20 -87 20 -62 1 -65 2 -46 16 15 11 33 14 67 10 57 -8 119 14 149 53 l21
26 -21 5 c-15 4 -18 9 -11 20 16 26 11 40 -15 40 -18 0 -25 5 -25 19 0 52
-124 -47 -137 -109 -3 -16 -12 -35 -19 -41 -12 -10 -14 3 -14 78 0 74 -3 93
-18 106 -22 20 -65 22 -80 4 -6 -7 -13 -60 -15 -118 -1 -57 -4 -7 -5 111 -2
176 -5 220 -18 238 -18 26 -65 30 -88 6z m75 -11 c11 -12 15 -70 19 -237 5
-212 6 -221 25 -222 59 -2 58 -2 21 -47 -19 -24 -51 -77 -71 -118 -35 -75 -79
-209 -70 -217 5 -5 5 -5 35 98 24 83 81 199 111 226 17 16 19 16 19 1 0 -29
37 -57 75 -57 l34 0 4 -67 3 -68 2 73 2 72 -35 0 c-22 0 -43 8 -55 20 -24 24
-24 30 -7 55 10 12 16 14 21 7 11 -18 95 -15 102 2 3 9 13 12 22 9 38 -13 42
-33 42 -188 0 -142 -2 -154 -23 -186 -34 -51 -67 -58 -282 -58 -228 -1 -262 9
-295 81 -18 40 -20 68 -20 360 0 299 1 318 19 327 13 7 23 7 34 -2 14 -10 17
-38 19 -167 3 -130 5 -155 18 -155 13 0 15 30 18 199 1 127 6 204 13 213 13
14 55 18 63 5 3 -5 8 -100 11 -212 3 -112 8 -206 10 -208 2 -3 11 -2 20 1 13
6 15 38 15 230 0 160 3 226 12 235 17 17 53 15 69 -5z m129 -242 c17 -33 13
-171 -7 -193 -20 -22 -37 -23 -57 -2 -20 19 -23 183 -4 202 18 18 56 14 68 -7z"/>
<path d="M1058 1129 c-12 -7 -18 -22 -18 -48 0 -75 62 -81 68 -7 3 34 -10 66
-27 66 -3 0 -14 -5 -23 -11z"/>
<path d="M922 485 c-7 -14 -12 -31 -11 -38 0 -7 4 -3 8 7 11 29 49 31 54 3 l4
-22 2 23 c0 13 -6 25 -16 29 -10 4 -21 10 -24 15 -3 5 -11 -3 -17 -17z"/>
<path d="M1071 493 c-8 -14 -11 -15 -25 -4 -9 8 -19 11 -23 8 -3 -4 6 -12 20
-18 15 -7 24 -16 20 -22 -3 -6 -1 -7 6 -3 6 4 18 2 26 -4 14 -12 20 -5 17 21
-2 15 47 5 51 -10 3 -9 4 -4 4 10 -1 25 -3 26 -41 17 -21 -5 -43 -11 -48 -14
-4 -3 -5 2 -2 10 3 9 11 13 17 9 6 -3 7 -1 3 5 -10 16 -13 15 -25 -5z"/>
<path d="M1225 501 c-6 -5 -19 -11 -30 -14 -16 -4 -14 -5 6 -6 16 -1 29 5 33
14 6 17 4 19 -9 6z"/>
<path d="M845 490 c-14 -6 -15 -9 -5 -9 20 -1 24 -41 5 -41 -9 0 -12 6 -9 15
4 8 1 15 -5 15 -17 0 -13 -30 5 -37 8 -3 23 1 31 10 13 13 14 19 4 31 -9 11
-9 15 1 19 7 3 9 5 3 6 -5 0 -19 -4 -30 -9z"/>
<path d="M743 474 c-3 -9 0 -21 7 -27 10 -9 11 -9 6 1 -4 7 -2 12 6 13 28 3
33 4 38 14 3 5 -8 11 -23 12 -17 1 -30 -4 -34 -13z"/>
<path d="M997 463 c-4 -3 -7 -11 -7 -17 0 -6 5 -4 10 4 6 10 10 11 10 3 0 -7
10 -12 23 -12 16 1 18 2 5 6 -10 2 -18 9 -18 14 0 10 -14 12 -23 2z"/>
<path d="M1185 460 c-4 -6 -4 -14 -1 -17 3 -4 6 -1 6 5 0 7 5 12 11 12 5 0 7
-4 4 -10 -3 -5 -1 -10 5 -10 14 0 8 22 -7 27 -6 2 -14 -1 -18 -7z"/>
<path d="M1236 453 c-6 -14 -5 -15 5 -6 7 7 10 15 7 18 -3 3 -9 -2 -12 -12z"/>
<path d="M890 434 c0 -8 -4 -12 -10 -9 -5 3 -10 1 -10 -4 0 -6 7 -11 15 -11 8
0 15 9 15 20 0 11 -2 20 -5 20 -3 0 -5 -7 -5 -16z"/>
<path d="M1131 434 c0 -11 3 -14 6 -6 3 7 2 16 -1 19 -3 4 -6 -2 -5 -13z"/>
<path d="M1427 1502 c-22 -24 -21 -35 3 -57 16 -14 22 -15 35 -5 8 7 12 17 9
22 -4 6 -10 5 -15 -3 -7 -11 -11 -11 -21 -1 -9 9 -10 17 -2 30 17 26 47 21 54
-8 5 -22 7 -23 13 -6 16 41 -44 63 -76 28z"/>
<path d="M514 1475 c22 -17 12 -38 -15 -30 -10 4 -19 2 -19 -3 0 -12 78 -47
87 -39 3 4 -2 9 -11 13 -9 3 -16 13 -16 21 0 11 7 13 25 9 37 -9 30 8 -10 27
-43 20 -67 22 -41 2z"/>
<path d="M462 1387 c-15 -35 -15 -44 -1 -30 8 8 20 8 40 1 16 -5 34 -8 41 -6
7 3 -4 10 -24 17 -20 7 -39 20 -41 29 -3 13 -7 10 -15 -11z"/>
<path d="M1476 1344 c-22 -21 -20 -41 4 -54 12 -6 20 -7 20 -1 0 5 -5 11 -12
13 -22 8 1 38 28 38 23 0 25 -3 20 -26 -5 -19 -3 -25 6 -22 18 6 22 36 8 53
-16 20 -55 19 -74 -1z"/>
<path d="M453 1313 c-7 -3 -13 -18 -13 -34 0 -28 2 -29 48 -28 38 0 43 2 25 9
-28 11 -20 40 10 40 11 0 18 2 16 4 -8 6 -74 13 -86 9z m27 -33 c0 -11 -4 -20
-9 -20 -14 0 -23 18 -16 30 10 17 25 11 25 -10z"/>
<path d="M1485 1257 c-13 -10 -16 -21 -11 -40 5 -23 12 -27 41 -27 45 0 66 32
39 61 -20 22 -43 24 -69 6z m63 -29 c4 -23 -36 -34 -55 -15 -9 8 -12 20 -8 27
10 17 59 8 63 -12z"/>
<path d="M478 1217 c-49 -14 -48 -31 1 -45 51 -16 53 -15 39 9 -10 17 -10 23
0 26 13 5 17 24 5 22 -5 -1 -25 -6 -45 -12z m22 -21 c0 -11 -19 -15 -25 -6 -3
5 1 10 9 10 9 0 16 -2 16 -4z"/>
<path d="M1470 1139 c0 -17 4 -28 10 -24 6 3 10 15 10 25 0 14 9 20 38 23 34
3 33 4 -10 5 -47 2 -48 1 -48 -29z"/>
<path d="M440 1130 c0 -5 7 -7 15 -4 10 4 15 0 15 -15 0 -12 -6 -21 -15 -21
-8 0 -15 -3 -15 -8 0 -4 21 -5 48 -3 26 3 37 7 25 9 -14 2 -23 10 -23 22 0 11
9 20 23 23 12 2 1 5 -25 6 -27 0 -48 -3 -48 -9z"/>
<path d="M1471 1068 l1 -33 11 25 c9 20 19 25 39 23 15 -1 30 2 33 8 4 5 -14
9 -39 9 -45 0 -46 0 -45 -32z"/>
<path d="M447 1054 c-4 -4 -7 -20 -7 -36 0 -27 2 -28 46 -28 45 0 45 0 42 33
-3 29 -7 32 -38 35 -20 2 -39 0 -43 -4z m57 -10 c30 -12 18 -34 -19 -34 -37 0
-43 8 -23 28 14 14 20 14 42 6z"/>
<path d="M1470 1000 c0 -16 5 -30 10 -30 6 0 9 3 9 8 -6 35 17 45 24 10 l4
-23 8 23 c4 12 11 22 15 22 5 0 11 -10 13 -22 3 -17 5 -14 6 10 1 32 0 32 -44
32 -43 0 -45 -1 -45 -30z"/>
<path d="M452 968 c-7 -7 -12 -22 -12 -35 0 -21 5 -23 45 -23 43 0 45 1 45 29
0 39 -50 57 -78 29z m68 -23 c0 -10 -11 -15 -35 -15 -26 0 -33 3 -29 15 4 9
19 15 35 15 19 0 29 -5 29 -15z"/>
<path d="M1487 949 c-11 -7 -16 -20 -15 -40 2 -23 7 -29 25 -29 14 0 23 6 23
15 0 10 -7 15 -17 13 -11 -2 -18 3 -18 12 0 10 10 15 30 15 27 0 30 -3 28 -27
-2 -33 2 -35 17 -8 8 15 6 24 -10 40 -22 22 -36 24 -63 9z"/>
<path d="M463 883 c15 -2 39 -2 55 0 15 2 2 4 -28 4 -30 0 -43 -2 -27 -4z"/>
<path d="M444 845 c-9 -23 3 -45 25 -45 12 0 21 9 25 25 8 33 30 33 23 0 -3
-16 0 -24 7 -22 6 2 11 15 11 28 0 36 -42 39 -55 4 -5 -14 -14 -23 -20 -20 -7
4 -7 13 0 26 8 13 7 19 0 19 -6 0 -13 -7 -16 -15z"/>
<path d="M1471 828 c1 -30 2 -30 8 -9 8 31 31 40 31 12 0 -12 5 -21 10 -21 6
0 10 9 10 20 0 30 18 24 23 -7 4 -26 4 -26 6 5 1 32 0 32 -44 32 -44 0 -45 -1
-44 -32z"/>
<path d="M455 599 c-11 -16 -1 -19 13 -3 7 8 8 14 3 14 -5 0 -13 -5 -16 -11z"/>
<path d="M518 603 c6 -2 12 -11 12 -18 0 -8 4 -16 9 -19 4 -3 6 6 3 19 -2 15
-11 25 -21 24 -10 0 -11 -2 -3 -6z"/>
<path d="M1455 600 c-3 -5 0 -7 8 -4 8 3 18 1 22 -5 3 -6 11 -11 18 -11 6 0 2
7 -9 15 -23 17 -31 18 -39 5z"/>
<path d="M1533 596 c1 -11 9 -21 17 -23 10 -3 11 -2 4 4 -6 4 -14 15 -17 23
-5 11 -6 9 -4 -4z"/>
<path d="M568 573 c10 -4 10 -8 0 -20 -10 -12 -9 -17 5 -28 22 -16 21 -22 0
-28 -16 -4 -16 -5 -1 -6 25 -2 34 20 13 35 -14 10 -15 17 -7 27 12 15 6 28
-12 26 -6 0 -5 -3 2 -6z"/>
<path d="M1450 570 c-9 -6 -10 -10 -3 -10 6 0 15 5 18 10 8 12 4 12 -15 0z"/>
<path d="M414 559 c-3 -6 -2 -14 3 -18 6 -3 13 -13 16 -21 4 -12 6 -12 6 2 1
9 -4 20 -10 24 -8 4 -7 9 2 15 10 6 10 9 2 9 -6 0 -15 -5 -19 -11z"/>
<path d="M1415 561 c-3 -5 -2 -12 3 -15 5 -3 9 1 9 9 0 17 -3 19 -12 6z"/>
<path d="M1569 553 c-13 -16 -12 -17 4 -4 16 13 21 21 13 21 -2 0 -10 -8 -17
-17z"/>
<path d="M500 553 c8 -3 22 -11 30 -17 13 -10 13 -9 1 7 -7 9 -21 17 -30 16
-13 0 -14 -1 -1 -6z"/>
<path d="M1510 556 c0 -2 7 -7 16 -10 8 -3 12 -2 9 4 -6 10 -25 14 -25 6z"/>
<path d="M1420 515 c-7 -9 -11 -17 -9 -20 3 -2 10 5 17 15 14 24 10 26 -8 5z"/>
<path d="M1591 514 c0 -11 3 -14 6 -6 3 7 2 16 -1 19 -3 4 -6 -2 -5 -13z"/>
<path d="M411 499 c-1 -10 9 -19 24 -21 13 -3 22 -1 19 3 -3 5 -11 9 -19 9 -7
0 -16 6 -18 13 -4 7 -6 6 -6 -4z"/>
<path d="M477 489 c7 -7 15 -10 18 -7 3 3 -2 9 -12 12 -14 6 -15 5 -6 -5z"/>
<path d="M563 468 c1 -7 -4 -12 -11 -10 -8 1 -11 -2 -7 -8 5 -8 11 -8 21 1 7
6 11 15 8 20 -8 13 -14 11 -11 -3z"/>
<path d="M1444 469 c-11 -18 14 -35 29 -20 10 10 8 11 -7 5 -16 -6 -18 -4 -13
9 7 19 2 23 -9 6z"/>
<path d="M1523 454 c-3 -8 -3 -18 1 -21 3 -4 6 1 6 11 0 13 5 16 19 11 11 -3
22 -2 24 2 3 4 -6 9 -20 9 -13 1 -27 -5 -30 -12z"/>
<path d="M464 448 c-5 -7 -3 -8 5 -4 7 5 18 0 26 -10 13 -18 14 -18 8 4 -6 24
-27 30 -39 10z"/>
<path d="M521 444 c0 -11 3 -14 6 -6 3 7 2 16 -1 19 -3 4 -6 -2 -5 -13z"/>
<path d="M1491 444 c0 -11 3 -14 6 -6 3 7 2 16 -1 19 -3 4 -6 -2 -5 -13z"/>
<path d="M636 307 c-10 -27 -16 -51 -12 -54 3 -3 22 7 41 22 43 32 52 28 31
-14 -25 -48 -18 -60 9 -16 30 49 30 52 4 60 -13 4 -27 1 -38 -9 -24 -22 -34
-20 -21 5 6 11 10 28 8 37 -2 10 -11 -3 -22 -31z"/>
<path d="M1306 312 c-5 -9 9 -80 18 -89 3 -4 6 1 6 10 0 16 11 21 37 18 7 -1
10 4 7 11 -8 20 -62 59 -68 50z m34 -43 c0 -6 -4 -7 -10 -4 -5 3 -10 11 -10
16 0 6 5 7 10 4 6 -3 10 -11 10 -16z"/>
<path d="M1222 281 c-14 -9 -7 -77 9 -87 18 -11 49 17 49 44 0 43 -27 63 -58
43z m43 -32 c8 -23 -7 -45 -23 -35 -5 3 -12 17 -14 31 -4 19 -1 25 13 25 10 0
21 -9 24 -21z"/>
<path d="M769 253 c-20 -58 -22 -60 -26 -40 -5 21 -23 23 -23 2 0 -22 29 -31
45 -14 14 15 31 79 21 79 -4 0 -11 -12 -17 -27z"/>
<path d="M821 248 c-19 -51 -22 -68 -13 -68 6 0 12 6 15 13 3 9 9 9 26 -1 24
-14 25 -11 10 41 -11 42 -26 48 -38 15z m24 -17 c3 -5 1 -12 -5 -16 -5 -3 -10
1 -10 9 0 18 6 21 15 7z"/>
<path d="M885 240 c8 -16 15 -37 16 -47 0 -12 3 -9 8 8 5 14 14 35 20 47 6 12
8 22 2 22 -5 0 -12 -8 -16 -17 -6 -17 -7 -17 -16 0 -17 30 -30 19 -14 -13z"/>
<path d="M948 225 c-17 -45 -13 -56 10 -33 9 9 15 9 24 0 7 -7 15 -12 19 -12
11 0 -15 83 -27 87 -5 2 -17 -17 -26 -42z m28 -12 c-10 -10 -19 5 -10 18 6 11
8 11 12 0 2 -7 1 -15 -2 -18z"/>
<path d="M1013 253 c3 -10 8 -30 11 -45 4 -16 10 -28 14 -28 5 0 13 12 19 28
l11 27 1 -28 c1 -18 6 -27 13 -25 13 5 31 63 25 81 -3 7 -9 -4 -14 -23 l-9
-35 -7 33 c-8 38 -27 43 -27 7 0 -14 -4 -25 -10 -25 -5 0 -10 11 -10 25 0 14
-5 25 -11 25 -6 0 -8 -8 -6 -17z"/>
<path d="M1140 258 c0 -7 -3 -31 -6 -53 -6 -38 -5 -39 9 -20 14 18 18 18 37 7
12 -8 21 -10 19 -5 -2 4 -11 25 -19 46 -13 35 -40 51 -40 25z m30 -39 c0 -5
-4 -9 -10 -9 -5 0 -10 7 -10 16 0 8 5 12 10 9 6 -3 10 -10 10 -16z"/>
<path d="M1520 1765 c-13 -14 -19 -25 -13 -25 6 0 14 8 17 17 6 15 8 15 16 3
8 -12 10 -10 10 8 0 28 -1 28 -30 -3z"/>
<path d="M440 1772 c0 -6 8 -18 18 -29 9 -10 14 -14 10 -8 -4 7 -6 14 -4 16 2
2 -2 10 -10 17 -8 7 -14 9 -14 4z"/>
<path d="M1553 1741 c-24 -20 -29 -31 -14 -31 5 0 16 11 25 25 20 30 18 30
-11 6z"/>
<path d="M420 1731 c0 -6 4 -13 10 -16 6 -3 7 1 4 9 -7 18 -14 21 -14 7z"/>
<path d="M1595 1710 c3 -5 8 -10 11 -10 2 0 4 5 4 10 0 6 -5 10 -11 10 -5 0
-7 -4 -4 -10z"/>
<path d="M1573 1686 c7 -15 14 -20 18 -14 4 6 1 17 -6 25 -20 20 -24 16 -12
-11z"/>
<path d="M428 1693 c7 -3 16 -2 19 1 4 3 -2 6 -13 5 -11 0 -14 -3 -6 -6z"/>
</g>
</svg>
