<?xml version="1.0" encoding="UTF-8" standalone="no"?>
<!-- Created with Inkscape (http://www.inkscape.org/) -->

<svg
   xmlns:dc="http://purl.org/dc/elements/1.1/"
   xmlns:cc="http://creativecommons.org/ns#"
   xmlns:rdf="http://www.w3.org/1999/02/22-rdf-syntax-ns#"
   xmlns:svg="http://www.w3.org/2000/svg"
   xmlns="http://www.w3.org/2000/svg"
   xmlns:sodipodi="http://sodipodi.sourceforge.net/DTD/sodipodi-0.dtd"
   xmlns:inkscape="http://www.inkscape.org/namespaces/inkscape"
   width="244.05339"
   height="35.479191"
   viewBox="0 0 64.57246 9.3872029"
   version="1.1"
   id="svg54501"
   inkscape:version="0.92.4 (5da689c313, 2019-01-14)"
   sodipodi:docname="regal rexnord.svg">
  <defs
     id="defs54495" />
  <sodipodi:namedview
     id="base"
     pagecolor="#ffffff"
     bordercolor="#666666"
     borderopacity="1.0"
     inkscape:pageopacity="0.0"
     inkscape:pageshadow="2"
     inkscape:zoom="6.1138827"
     inkscape:cx="121.5267"
     inkscape:cy="17.239597"
     inkscape:document-units="mm"
     inkscape:current-layer="layer1"
     showgrid="false"
     fit-margin-top="0"
     fit-margin-left="0"
     fit-margin-right="0"
     fit-margin-bottom="0"
     units="px"
     inkscape:window-width="1920"
     inkscape:window-height="1001"
     inkscape:window-x="-9"
     inkscape:window-y="-9"
     inkscape:window-maximized="1" />
  <metadata
     id="metadata54498">
    <rdf:RDF>
      <cc:Work
         rdf:about="">
        <dc:format>image/svg+xml</dc:format>
        <dc:type
           rdf:resource="http://purl.org/dc/dcmitype/StillImage" />
        <dc:title></dc:title>
      </cc:Work>
    </rdf:RDF>
  </metadata>
  <g
     inkscape:label="Layer 1"
     inkscape:groupmode="layer"
     id="layer1"
     transform="translate(279.35037,-451.68006)">
    <g
       transform="translate(-3.7470802,-55.735378)"
       id="g54464">
      <g
         style="fill:#73ba40;fill-opacity:1"
         id="g54431">
        <path
           style="fill:#73ba40;fill-opacity:1;fill-rule:nonzero;stroke-width:0.35277778"
           inkscape:connector-curvature="0"
           d="m -267.95518,510.49673 0.0896,-0.514 h -2.75194 c -0.82269,0 -1.39044,0.42305 -1.54064,1.26779 l -0.60359,3.39273 h 0.54846 l 0.4837,-2.72025 c 0.20532,-1.16168 0.44097,-1.42627 1.61643,-1.42627 z m 0,0"
           id="path53462" />
        <path
           style="fill:#73ba40;fill-opacity:1;fill-rule:nonzero;stroke-width:0.35277778"
           inkscape:connector-curvature="0"
           d="m -269.67773,511.61708 c -0.63389,0 -0.74689,0.17777 -0.86127,0.81993 l -0.39274,2.20624 h 0.11989 c 1.22783,0 2.27927,-0.88056 2.49149,-2.08773 l 0.16537,-0.93844 z m 0,0"
           id="path53464" />
        <path
           style="fill:#73ba40;fill-opacity:1;fill-rule:nonzero;stroke-width:0.35277778"
           inkscape:connector-curvature="0"
           d="m -273.74156,510.8316 c 0.27974,-1.40973 0.60496,-2.30408 2.86218,-2.30408 h 3.27147 l 0.17087,-0.97014 h -4.28569 c -1.5503,0 -2.66513,0.9536 -2.89664,2.26136 l -0.85163,4.82451 h 1.04593 z m 0,0"
           id="path53466" />
      </g>
      <g
         style="fill:#00306b;fill-opacity:1"
         id="g54426">
        <path
           style="fill:#00306b;fill-opacity:1;fill-rule:nonzero;stroke-width:0.35277778"
           inkscape:connector-curvature="0"
           d="m -211.99856,508.10584 v -0.47405 h -0.14469 v -0.0827 h 0.38033 v 0.0827 h -0.14607 v 0.47405 z m 0.31833,0 v -0.55673 h 0.11988 l 0.13505,0.41341 h 0.01 l 0.13367,-0.41341 h 0.11851 v 0.55673 h -0.0841 v -0.41755 h -0.007 l -0.13367,0.41755 h -0.0675 l -0.13367,-0.41755 h -0.007 v 0.41755 z m 0,0"
           id="path53468" />
        <path
           style="fill:#00306b;fill-opacity:1;fill-rule:nonzero;stroke-width:0.35277778"
           inkscape:connector-curvature="0"
           d="m -243.81746,514.64739 h -0.57189 l 1.25402,-7.0969 h 2.6224 c 0.49472,0 0.8599,0.14056 1.09692,0.42306 0.23565,0.2825 0.31144,0.6711 0.22462,1.16444 l -0.20808,1.17409 c -0.0703,0.40101 -0.226,0.73174 -0.46578,0.99219 -0.23978,0.26182 -0.53881,0.43408 -0.8971,0.52089 l -0.0193,0.006 0.85714,2.81671 h -0.68075 c -0.12127,0 -0.20257,-0.051 -0.24253,-0.15021 l -0.74552,-2.5976 -1.52549,0.003 -0.44786,2.53146 c -0.0207,0.11713 -0.13367,0.21359 -0.25081,0.21359 z m 2.54386,-3.40238 c 0.51125,0 0.9977,-0.41203 1.08727,-0.92191 l 0.20395,-1.15342 c 0.10886,-0.62149 -0.14332,-0.93293 -0.7593,-0.93293 l -1.73082,0.001 -0.53054,3.00964 z m 0,0"
           id="path53470" />
        <path
           style="fill:#00306b;fill-opacity:1;fill-rule:nonzero;stroke-width:0.35277778"
           inkscape:connector-curvature="0"
           d="m -235.49135,514.64739 h -2.42949 c -0.49333,0 -0.85714,-0.14056 -1.0914,-0.41893 -0.23427,-0.27836 -0.30593,-0.66835 -0.21773,-1.16857 l 0.40514,-2.29719 c 0.0896,-0.50023 0.29903,-0.89022 0.63114,-1.16858 0.33211,-0.27974 0.74552,-0.41892 1.24024,-0.41892 h 0.90261 c 0.49472,0 0.85576,0.13918 1.08589,0.41892 0.23014,0.27836 0.30179,0.66835 0.2136,1.16858 l -0.27009,1.52411 -3.29903,0.003 -0.13229,0.74827 c -0.11024,0.62288 0.13505,0.93293 0.73725,0.93293 h 2.12907 c 0.11713,0 0.19706,0.0965 0.17639,0.2136 z m -2.72714,-2.92971 h 2.53559 l 0.16536,-0.93294 c 0.10749,-0.61598 -0.13918,-0.92328 -0.74138,-0.92328 h -0.73036 c -0.60221,0 -0.95774,0.30868 -1.06523,0.92328 z m 0,0"
           id="path53472" />
        <path
           style="fill:#00306b;fill-opacity:1;fill-rule:nonzero;stroke-width:0.35277778"
           inkscape:connector-curvature="0"
           d="m -229.40456,514.64739 h -0.7841 l 0.966,-5.47219 h 0.57051 c 0.11851,0 0.19706,0.0951 0.17639,0.21221 l -0.062,0.35554 c 0,0 0.2825,-0.56913 1.23886,-0.56913 h 0.6022 c 0.48645,0 0.84198,0.13918 1.06523,0.41892 0.22324,0.27837 0.29076,0.66835 0.20257,1.16858 l -0.68626,3.88469 h -0.78548 l 0.68075,-3.85162 c 0.11024,-0.62287 -0.13505,-0.93431 -0.73726,-0.93431 h -0.6022 c -0.32246,0 -0.58567,0.0868 -0.78686,0.25769 -0.20257,0.17226 -0.3321,0.41479 -0.38722,0.73036 z m 0,0"
           id="path53474" />
        <path
           style="fill:#00306b;fill-opacity:1;fill-rule:nonzero;stroke-width:0.35277778"
           inkscape:connector-curvature="0"
           d="m -222.95672,514.64739 h -0.92329 c -0.49471,0 -0.85852,-0.14056 -1.09278,-0.41893 -0.23427,-0.27836 -0.30593,-0.66835 -0.21773,-1.16857 l 0.40514,-2.29719 c 0.0882,-0.50023 0.29904,-0.89022 0.63114,-1.16858 0.33211,-0.27974 0.74552,-0.41892 1.24024,-0.41892 h 0.92329 c 0.49471,0 0.85851,0.13918 1.09278,0.41892 0.23427,0.27836 0.30592,0.66835 0.21773,1.16858 l -0.40515,2.29719 c -0.0882,0.50022 -0.30041,0.89021 -0.63114,1.16857 -0.3321,0.27837 -0.74551,0.41893 -1.24023,0.41893 z m -0.71658,-0.68627 h 0.75241 c 0.6022,0 0.95636,-0.30868 1.06522,-0.92328 l 0.39826,-2.2531 c 0.10886,-0.61598 -0.13781,-0.92328 -0.74001,-0.92328 h -0.75241 c -0.6022,0 -0.95636,0.30868 -1.06522,0.92328 l -0.39826,2.2531 c -0.10886,0.6146 0.13781,0.92328 0.74001,0.92328 z m 0,0"
           id="path53476" />
        <path
           style="fill:#00306b;fill-opacity:1;fill-rule:nonzero;stroke-width:0.35277778"
           inkscape:connector-curvature="0"
           d="m -219.8837,514.64739 h -0.7841 l 0.96601,-5.47219 h 0.57051 c 0.1185,0 0.19705,0.0951 0.17638,0.21221 l -0.0565,0.32522 c 0,0 0.1819,-0.20946 0.51539,-0.36656 0.22324,-0.10473 0.46716,-0.17087 0.73863,-0.17087 h 0.55948 l -0.12127,0.68488 -0.71933,0.001 c -0.32246,0 -0.58705,0.0965 -0.79375,0.28939 -0.20533,0.19292 -0.33762,0.45751 -0.39825,0.79375 z m 0,0"
           id="path53478" />
        <path
           style="fill:#00306b;fill-opacity:1;fill-rule:nonzero;stroke-width:0.35277778"
           inkscape:connector-curvature="0"
           d="m -213.33526,507.76271 -0.35002,1.98024 c 0,0 -0.21084,-0.56775 -1.04869,-0.56775 h -0.6339 c -0.48782,0 -0.89158,0.13918 -1.21267,0.41754 -0.32246,0.27837 -0.52779,0.66835 -0.61598,1.16996 l -0.40514,2.29581 c -0.0882,0.50023 -0.0207,0.89021 0.20257,1.16857 0.22186,0.27975 0.5774,0.41893 1.06384,0.41893 h 0.63528 c 0.71933,0 1.24988,-0.56913 1.24988,-0.56913 l -0.0634,0.35553 c -0.0207,0.11851 0.0579,0.2136 0.17639,0.2136 h 0.56224 l 1.25263,-7.09828 h -0.56086 c -0.11851,10e-4 -0.23151,0.0965 -0.25218,0.21498 z m -0.92053,5.21036 c -0.0551,0.31419 -0.18465,0.55811 -0.38585,0.73036 -0.20257,0.17225 -0.4644,0.25769 -0.78824,0.25769 h -0.65457 c -0.59531,0 -0.83784,-0.31143 -0.7276,-0.93431 l 0.39412,-2.23104 c 0.11024,-0.62287 0.46302,-0.93431 1.05696,-0.93431 h 0.65594 c 0.32246,0 0.55397,0.0868 0.69591,0.25769 0.14194,0.17226 0.18466,0.41479 0.12954,0.73036 z m 0,0"
           id="path53480" />
        <path
           style="fill:#00306b;fill-opacity:1;fill-rule:nonzero;stroke-width:0.35277778"
           inkscape:connector-curvature="0"
           d="m -231.39858,511.24914 1.52686,-2.07394 h -0.9095 l -0.87505,1.30913 z m 0,0"
           id="path53482" />
        <path
           style="fill:#00306b;fill-opacity:1;fill-rule:nonzero;stroke-width:0.35277778"
           inkscape:connector-curvature="0"
           d="m -232.09863,511.87064 -0.87505,-2.54662 c -0.04,-0.0992 -0.10611,-0.14882 -0.19844,-0.14882 h -0.76481 l 1.06523,2.68166 -2.0836,2.78915 h 0.77308 c 0.0744,0 0.13781,-0.0276 0.19155,-0.0827 z m 0,0"
           id="path53484" />
        <path
           style="fill:#00306b;fill-opacity:1;fill-rule:nonzero;stroke-width:0.35277778"
           inkscape:connector-curvature="0"
           d="m -232.12894,513.21698 0.44511,1.2802 c 0.04,0.1006 0.0992,0.15021 0.17776,0.15021 h 0.79237 l -0.88194,-2.19384 z m 0,0"
           id="path53486" />
        <path
           style="fill:#00306b;fill-opacity:1;fill-rule:nonzero;stroke-width:0.35277778"
           inkscape:connector-curvature="0"
           d="m -257.76872,514.64739 h -2.60036 c -0.56499,0 -0.97565,-0.15021 -1.23196,-0.452 -0.25494,-0.29903 -0.33211,-0.73174 -0.23151,-1.29811 l 0.34864,-1.97335 c 0.0992,-0.56638 0.32935,-0.99908 0.6904,-1.29812 0.36104,-0.30041 0.82544,-0.45199 1.39181,-0.45199 h 0.84888 c 0.56637,0 0.97565,0.1502 1.23196,0.45199 0.25356,0.29904 0.33211,0.73312 0.23151,1.29812 l -0.23426,1.30362 c -0.0289,0.1571 -0.17777,0.28388 -0.33487,0.28388 l -2.76296,10e-4 -0.0634,0.35278 c -0.0386,0.22186 -0.0179,0.38034 0.062,0.4768 0.0799,0.0965 0.23289,0.1447 0.46302,0.1447 h 2.10702 c 0.1571,0 0.26183,0.12678 0.23564,0.28387 z m -2.48047,-3.04822 h 1.69774 l 0.11163,-0.63252 c 0.0413,-0.22876 0.022,-0.38999 -0.0551,-0.48232 -0.0758,-0.0937 -0.22875,-0.14056 -0.45888,-0.14056 h -0.45062 c -0.23013,0 -0.39963,0.0469 -0.5085,0.14056 -0.11024,0.0923 -0.18465,0.25356 -0.22462,0.48232 z m 0,0"
           id="path53488" />
        <path
           style="fill:#00306b;fill-opacity:1;fill-rule:nonzero;stroke-width:0.35277778"
           inkscape:connector-curvature="0"
           d="m -255.17112,514.64187 h -0.35415 c -0.5526,0 -0.94396,-0.1502 -1.17271,-0.45061 -0.23014,-0.30042 -0.2949,-0.73312 -0.19569,-1.29812 l 0.34865,-1.96921 c 0.0992,-0.56638 0.32935,-0.99908 0.69039,-1.29812 0.36105,-0.30041 0.82545,-0.45199 1.39045,-0.45199 h 2.71886 l -1.01561,5.75744 c -0.0992,0.55811 -0.33073,0.98806 -0.69591,1.28709 -0.3638,0.30041 -0.82544,0.452 -1.38493,0.452 h -2.28754 l 0.1571,-0.89573 c 0.0276,-0.1571 0.17776,-0.28525 0.33486,-0.28525 h 1.77905 c 0.22875,0 0.40101,-0.0482 0.514,-0.1447 0.11438,-0.0965 0.19155,-0.25631 0.23014,-0.47818 l 0.14331,-0.81579 c 0,0 -0.21359,0.27836 -0.53881,0.44097 -0.21635,0.10748 -0.43959,0.1502 -0.66146,0.1502 z m 1.4497,-1.9954 0.40376,-2.29167 h -1.13963 c -0.22876,0 -0.39826,0.0482 -0.5085,0.14469 -0.11024,0.0965 -0.18604,0.25907 -0.226,0.4892 l -0.32522,1.83969 c -0.0413,0.23013 -0.022,0.38998 0.0538,0.48369 0.0772,0.0923 0.23013,0.13918 0.46026,0.13918 h 0.39688 c 0.49471,0 0.78961,-0.26872 0.8847,-0.80478 z m 0,0"
           id="path53490" />
        <path
           style="fill:#00306b;fill-opacity:1;fill-rule:nonzero;stroke-width:0.35277778"
           inkscape:connector-curvature="0"
           d="m -245.98512,514.64739 h -1.08038 l 1.20441,-6.8144 c 0.0276,-0.1571 0.17776,-0.28388 0.33486,-0.28388 h 1.08038 l -1.20302,6.8144 c -0.0289,0.15572 -0.17915,0.28388 -0.33625,0.28388 z m 0,0"
           id="path53492" />
        <path
           style="fill:#00306b;fill-opacity:1;fill-rule:nonzero;stroke-width:0.35277778"
           inkscape:connector-curvature="0"
           d="m -250.48303,514.64187 h 0.35415 c 0.22187,0 0.44511,-0.0427 0.66146,-0.1502 0.32522,-0.16261 0.53881,-0.4396 0.53881,-0.4396 l -0.0537,0.30868 c -0.0276,0.1571 0.0772,0.28388 0.23427,0.28388 h 1.08038 l 0.966,-5.47081 h -2.71886 c -0.56638,0 -1.0294,0.1502 -1.39045,0.45199 -0.36104,0.29904 -0.59117,0.73312 -0.69177,1.29812 l -0.34727,1.96921 c -0.10059,0.565 -0.0344,0.9977 0.19569,1.29812 0.22875,0.30041 0.61873,0.45061 1.17133,0.45061 z m 0.33348,-3.65318 c 0.0413,-0.22875 0.11576,-0.39274 0.226,-0.4892 0.11024,-0.0965 0.27974,-0.14469 0.50988,-0.14469 h 1.13825 l -0.40376,2.29167 c -0.0951,0.53606 -0.38999,0.80478 -0.8847,0.80478 h -0.39688 c -0.23013,0 -0.38309,-0.0468 -0.45888,-0.14056 -0.0772,-0.0923 -0.0951,-0.25356 -0.0551,-0.48231 z m 0,0"
           id="path53494" />
        <path
           style="fill:#00306b;fill-opacity:1;fill-rule:nonzero;stroke-width:0.35277778"
           inkscape:connector-curvature="0"
           d="m -262.05993,508.01213 c -0.26045,-0.30868 -0.67111,-0.46164 -1.22921,-0.46164 h -2.78364 l -0.42995,2.43086 h 1.36564 l 0.22049,-1.25126 h 1.17133 c 0.22875,0 0.38998,0.051 0.47956,0.15021 0.0896,0.10059 0.11437,0.26182 0.0758,0.48369 l -0.18328,1.0349 c -0.0372,0.2136 -0.11851,0.36932 -0.24254,0.46578 -0.1254,0.0978 -0.30179,0.1447 -0.53054,0.1447 h -2.53697 l -0.64216,3.63802 h 1.08038 c 0.15709,0 0.3073,-0.12678 0.33486,-0.28388 l 0.39825,-2.25723 0.84888,-10e-4 0.66559,2.31786 c 0.0193,0.0937 0.0551,0.15434 0.10748,0.1819 0.0524,0.0289 0.14332,0.0427 0.27286,0.0427 h 1.18097 l -0.82406,-2.6858 0.022,-0.007 c 0.6835,-0.26458 1.09692,-0.80064 1.24023,-1.60955 l 0.1819,-1.0349 c 0.0978,-0.55811 0.0165,-0.99081 -0.24391,-1.29812 z m 0,0"
           id="path53496" />
      </g>
    </g>
  </g>
</svg>
