<?xml version="1.0" standalone="no"?>
<!DOCTYPE svg PUBLIC "-//W3C//DTD SVG 20010904//EN"
 "http://www.w3.org/TR/2001/REC-SVG-20010904/DTD/svg10.dtd">
<svg version="1.0" xmlns="http://www.w3.org/2000/svg"
 width="226.000000pt" height="223.000000pt" viewBox="0 0 226.000000 223.000000"
 preserveAspectRatio="xMidYMid meet">

<g transform="translate(0.000000,223.000000) scale(0.100000,-0.100000)"
fill="#000000" stroke="none">
<path d="M1220 1886 c0 -2 8 -10 18 -17 15 -13 16 -12 3 4 -13 16 -21 21 -21
13z"/>
<path d="M1016 1655 c-3 -8 -1 -15 4 -15 6 0 10 7 10 15 0 8 -2 15 -4 15 -2 0
-6 -7 -10 -15z"/>
<path d="M981 1354 c0 -11 3 -14 6 -6 3 7 2 16 -1 19 -3 4 -6 -2 -5 -13z"/>
<path d="M364 871 c-37 -23 -59 -77 -50 -125 8 -44 47 -78 131 -115 91 -41
105 -55 105 -102 0 -55 -36 -75 -123 -71 -43 3 -87 52 -87 96 0 22 -5 36 -12
36 -9 0 -14 -23 -15 -75 -3 -72 6 -93 25 -60 7 14 12 14 41 -1 42 -21 119 -21
159 0 54 28 77 101 50 160 -14 32 -37 47 -119 81 -81 33 -109 59 -109 102 0
50 29 73 90 73 64 0 100 -30 100 -85 0 -24 4 -35 15 -35 11 0 15 13 15 54 0
30 3 61 6 70 4 10 1 16 -9 16 -8 0 -18 -7 -21 -16 -5 -14 -8 -14 -28 0 -32 23
-125 21 -164 -3z"/>
<path d="M816 728 c-104 -289 -94 -268 -127 -268 -16 0 -29 -4 -29 -10 0 -6
30 -10 70 -10 40 0 70 4 70 10 0 6 -11 10 -25 10 -31 0 -31 1 -2 75 l23 60 76
3 76 3 26 -66 c14 -36 26 -67 26 -70 0 -3 -14 -5 -31 -5 -17 0 -28 -4 -24 -10
8 -13 175 -13 175 -1 0 5 -12 11 -26 13 -25 3 -33 19 -109 213 -48 123 -88
211 -97 213 -10 2 -31 -45 -72 -160z m71 30 c6 -18 20 -57 32 -85 l21 -53 -69
0 -68 0 30 85 c16 47 33 85 37 85 3 0 11 -15 17 -32z"/>
<path d="M1689 875 c-36 -20 -63 -78 -55 -123 8 -49 48 -87 127 -118 79 -31
112 -62 112 -103 0 -38 -17 -58 -59 -70 -74 -20 -154 29 -154 94 0 19 -4 35
-10 35 -5 0 -10 -20 -10 -44 0 -24 -3 -58 -6 -75 -5 -24 -3 -31 10 -31 9 0 16
7 16 15 0 19 4 19 42 -1 17 -9 52 -16 78 -16 89 0 140 48 140 132 0 55 -33 86
-129 124 -78 30 -111 63 -111 107 0 45 31 69 89 69 67 0 101 -27 101 -81 0
-26 4 -39 14 -39 10 0 15 19 18 68 3 37 3 69 2 71 -2 2 -12 -3 -21 -12 -16
-13 -20 -14 -37 -1 -26 18 -123 18 -157 -1z"/>
<path d="M1203 873 l37 -4 0 -205 0 -204 -36 0 c-21 0 -33 -4 -29 -10 8 -13
205 -13 205 -1 0 6 -17 11 -37 13 l-38 3 -3 198 -2 197 55 0 c83 0 114 -41
102 -133 -7 -48 -44 -87 -83 -87 -13 0 -24 -4 -24 -10 0 -16 62 -11 99 8 52
26 75 63 75 122 0 96 -49 121 -231 118 -70 -1 -111 -3 -90 -5z"/>
</g>
</svg>
