<?xml version="1.0" standalone="no"?>
<!DOCTYPE svg PUBLIC "-//W3C//DTD SVG 20010904//EN"
 "http://www.w3.org/TR/2001/REC-SVG-20010904/DTD/svg10.dtd">
<svg version="1.0" xmlns="http://www.w3.org/2000/svg"
 width="440.000000pt" height="230.000000pt" viewBox="0 0 440.000000 230.000000"
 preserveAspectRatio="xMidYMid meet">

<g transform="translate(0.000000,230.000000) scale(0.100000,-0.100000)"
fill="#000000" stroke="none">
<path d="M1092 1817 c-42 -24 -75 -98 -50 -113 4 -3 8 -17 8 -31 0 -21 -4 -24
-23 -19 -82 20 -136 17 -327 -19 -107 -20 -203 -38 -212 -41 -17 -5 -18 -30
-18 -338 l0 -333 30 -61 c48 -96 182 -211 357 -308 l52 -28 47 22 c147 72 322
219 368 311 l26 51 -2 342 -3 343 -55 10 -55 11 0 75 c0 74 -1 76 -36 107 -39
34 -70 39 -107 19z m90 -14 c14 -13 18 -31 18 -95 l0 -78 -40 0 -40 0 -2 73
-2 72 -3 -69 c-3 -51 -9 -73 -21 -82 -27 -21 -32 -17 -32 30 0 25 -5 48 -10
51 -8 5 -8 11 0 20 8 10 8 15 -1 20 -17 11 59 75 90 75 13 0 33 -7 43 -17z
m-210 -154 c80 -16 82 -17 68 -34 -7 -8 -9 -15 -4 -15 5 0 9 -17 9 -38 1 -34
-3 -39 -42 -60 -24 -12 -45 -22 -48 -22 -3 0 -5 20 -5 44 0 48 15 68 47 60 11
-3 24 -1 27 4 9 15 -53 8 -94 -11 -47 -21 -80 -51 -81 -74 0 -16 -1 -15 -9 3
-26 64 -109 83 -160 37 l-30 -28 -1 -188 -1 -189 -74 -35 c-93 -44 -91 -56 1
-14 37 17 69 31 71 31 2 0 4 -27 4 -59 0 -54 -2 -59 -25 -65 -20 -5 -25 -13
-27 -39 -1 -17 -2 -41 -2 -51 -1 -10 -11 -26 -24 -34 -22 -14 -22 -14 -22 31
0 37 4 49 21 57 11 7 18 14 15 17 -3 3 -17 -2 -31 -11 -20 -13 -25 -24 -25
-59 0 -23 4 -48 8 -55 12 -18 773 288 783 315 4 10 8 87 8 171 1 135 -1 152
-16 152 -9 0 -31 11 -50 26 l-33 25 0 -87 c0 -61 -3 -85 -10 -78 -7 7 -9 52
-7 115 2 61 6 96 10 84 10 -26 75 -68 93 -61 8 3 14 16 14 30 0 21 -6 25 -40
31 -22 4 -43 11 -46 17 -4 7 5 8 27 3 76 -15 69 20 69 -343 0 -324 0 -327 -24
-379 -42 -89 -174 -204 -347 -302 l-56 -31 -62 34 c-171 97 -304 214 -343 303
-19 44 -21 70 -26 369 -4 267 -2 323 9 330 13 8 370 80 411 83 9 0 41 -4 70
-10z m134 -245 c-3 -7 -14 -18 -25 -24 -21 -10 -21 -9 -21 98 0 103 1 109 23
119 22 10 22 10 25 -85 1 -53 1 -101 -2 -108z m78 200 c13 -5 16 -24 16 -105
l0 -99 -40 0 -40 0 0 105 c0 104 0 105 24 105 13 0 31 -3 40 -6z m-244 -89 c0
-40 -4 -47 -32 -65 -18 -11 -36 -20 -40 -20 -5 0 -8 19 -8 42 0 34 5 47 28 65
41 34 52 29 52 -22z m-145 27 c6 -4 17 -16 25 -26 14 -18 13 -19 -21 -12 -36
6 -37 6 -36 -26 0 -66 -3 -88 -13 -88 -5 0 -11 30 -12 68 l-2 67 -3 -67 c-3
-49 -8 -68 -18 -68 -7 0 -20 -3 -28 -6 -12 -4 -16 7 -19 63 -3 57 0 71 16 86
19 17 91 24 111 9z m255 -101 c0 -39 -5 -73 -10 -76 -7 -4 -6 -13 1 -26 6 -12
9 -22 7 -24 -6 -5 -87 -45 -93 -45 -3 0 -5 42 -5 94 l0 95 43 25 c23 14 45 26
50 26 4 0 7 -31 7 -69z m-204 -16 c-3 -8 -19 -21 -35 -30 l-31 -16 0 30 c0 22
8 34 33 50 l32 20 3 -20 c2 -11 1 -27 -2 -34z m94 5 c0 -11 -9 -29 -20 -40
-16 -16 -20 -33 -20 -81 0 -35 4 -58 9 -54 5 3 7 21 4 40 -3 18 -3 45 1 59 11
46 26 27 26 -34 0 -59 0 -60 -40 -80 l-40 -20 0 94 0 94 33 21 c40 26 47 26
47 1z m-90 -50 c0 -12 -9 -31 -21 -43 -17 -18 -20 -32 -17 -79 3 -53 -3 -68
-28 -68 -2 0 -4 39 -4 88 0 85 1 88 28 104 35 23 42 22 42 -2z m-90 -104 l0
-94 -32 2 c-18 1 -39 -2 -45 -7 -10 -7 -13 13 -13 92 l0 101 45 0 45 0 0 -94z
m424 88 c13 -5 16 -26 16 -124 l0 -117 -40 -16 -40 -15 0 139 0 139 24 0 c13
0 31 -3 40 -6z m-74 -139 c0 -123 -2 -135 -19 -145 -11 -5 -22 -10 -25 -10 -3
0 -6 63 -6 139 0 102 3 141 13 144 35 15 37 9 37 -128z m120 15 c0 -67 -4
-110 -10 -110 -6 0 -10 43 -10 110 0 67 4 110 10 110 6 0 10 -43 10 -110z
m-380 30 c0 -33 -4 -60 -10 -60 -11 0 -14 103 -3 113 12 12 13 8 13 -53z m200
-34 c0 -51 -2 -55 -30 -65 -29 -10 -30 -12 -30 -70 0 -50 -3 -62 -20 -71 -19
-10 -20 -8 -20 102 l0 113 48 22 c26 11 48 22 50 22 1 1 2 -23 2 -53z m-110
-50 c0 -35 -5 -47 -24 -60 -21 -13 -25 -25 -28 -73 -2 -34 -8 -58 -15 -61 -10
-3 -13 22 -13 102 0 105 0 105 28 120 44 25 52 20 52 -28z m-90 -41 c0 -39 -4
-47 -25 -57 -23 -10 -25 -17 -25 -70 0 -32 -4 -58 -10 -58 -6 0 -10 41 -10
103 l0 103 28 11 c41 17 42 16 42 -32z m188 -86 c-24 -16 -28 -9 -28 41 0 36
5 52 18 59 15 9 17 4 20 -41 2 -34 -1 -54 -10 -59z m-306 -6 l2 -108 3 108 c5
142 23 140 23 -2 l0 -109 -32 -7 c-18 -4 -39 -12 -45 -17 -10 -8 -13 15 -13
110 0 106 2 121 18 125 42 11 42 10 44 -100z m206 15 c-4 -69 -28 -79 -28 -10
0 27 3 52 7 55 17 17 24 3 21 -45z m-88 -37 c0 -34 -4 -51 -15 -55 -12 -4 -15
4 -15 43 0 26 3 51 7 54 16 17 23 4 23 -42z m-200 -86 c0 -25 -2 -45 -4 -45
-2 0 -11 -3 -20 -6 -13 -5 -16 2 -16 39 0 41 7 54 33 56 4 1 7 -19 7 -44z"/>
<path d="M720 1611 c-80 -15 -162 -31 -182 -35 l-38 -7 0 -239 c0 -132 2 -240
5 -240 2 0 29 11 58 24 73 32 78 46 75 245 l-2 164 32 28 c43 39 107 40 150 4
l29 -25 19 21 c24 26 113 69 130 62 7 -2 19 -1 26 3 9 6 -1 11 -27 16 -66 12
-123 7 -275 -21z"/>
<path d="M936 979 c-203 -81 -371 -151 -374 -154 -3 -3 16 -28 44 -56 52 -53
153 -126 247 -179 68 -38 64 -39 197 47 115 75 181 133 227 200 38 55 38 56
43 174 3 76 1 119 -5 118 -5 0 -176 -68 -379 -150z m-32 -157 c2 -4 1 -14 -4
-22 -5 -8 -3 -21 3 -32 24 -38 -27 -72 -72 -48 -25 13 -26 23 -6 44 9 9 11 17
5 21 -18 11 -11 45 13 54 21 8 50 0 61 -17z m-112 -47 l3 -65 -29 0 c-24 0
-27 2 -16 15 8 10 11 32 8 60 -5 41 0 51 24 54 3 1 8 -28 10 -64z m208 23
c-11 -24 -20 -51 -20 -61 0 -18 -26 -34 -37 -24 -3 3 6 27 21 53 14 25 26 48
26 50 0 5 -46 -2 -58 -10 -7 -4 -12 -2 -12 7 0 22 10 27 56 27 l43 0 -19 -42z
m82 -23 c3 -64 2 -65 -22 -65 -24 0 -25 3 -24 56 2 51 12 73 36 74 3 0 8 -29
10 -65z"/>
<path d="M850 816 c0 -9 7 -16 16 -16 17 0 14 22 -4 28 -7 2 -12 -3 -12 -12z"/>
<path d="M844 756 c-8 -21 16 -40 30 -26 7 7 4 16 -7 27 -15 15 -17 15 -23 -1z"/>
<path d="M693 1450 c0 -30 2 -43 4 -27 2 15 2 39 0 55 -2 15 -4 2 -4 -28z"/>
<path d="M1002 1430 c-14 -24 -16 -130 -2 -130 6 0 10 26 10 57 0 38 5 62 17
75 13 14 13 18 2 18 -8 0 -20 -9 -27 -20z"/>
<path d="M693 1280 c0 -47 2 -66 4 -42 2 23 2 61 0 85 -2 23 -4 4 -4 -43z"/>
<path d="M733 1280 c0 -47 2 -66 4 -42 2 23 2 61 0 85 -2 23 -4 4 -4 -43z"/>
<path d="M694 1040 c0 -58 1 -81 3 -52 2 28 2 76 0 105 -2 28 -3 5 -3 -53z"/>
<path d="M2610 1592 c-25 -3 -25 -3 -22 -98 2 -63 -1 -100 -9 -110 -9 -11 -7
-14 13 -14 24 0 25 2 20 50 -4 45 -3 50 16 50 11 0 36 -18 55 -39 46 -51 66
-61 121 -61 33 0 52 6 66 20 32 32 25 59 -30 110 -36 32 -49 51 -45 63 10 25
43 31 71 12 25 -16 25 -16 14 4 -12 24 -56 28 -84 8 -33 -24 -23 -65 28 -111
25 -24 46 -48 46 -54 0 -34 -74 -58 -86 -27 -4 8 -10 15 -16 15 -5 0 -6 -4 -3
-10 15 -24 -14 -7 -50 30 -35 36 -37 41 -23 57 53 62 11 116 -82 105z m71 -36
c7 -14 9 -36 5 -50 -5 -22 -12 -26 -41 -26 l-35 0 0 50 c0 49 1 50 30 50 22 0
33 -6 41 -24z"/>
<path d="M3006 1584 c-3 -8 10 -10 40 -6 l45 5 -3 -107 c-3 -100 -2 -106 17
-106 19 0 20 6 17 105 l-3 105 28 0 c52 0 72 -12 104 -61 26 -41 30 -56 27
-99 -3 -45 -1 -50 17 -50 18 0 20 6 17 52 -3 48 0 58 37 111 22 31 35 57 28
57 -7 0 -25 -23 -40 -50 -16 -28 -32 -50 -37 -50 -5 0 -21 22 -37 49 l-27 50
-113 3 c-77 2 -114 -1 -117 -8z"/>
<path d="M3535 1590 c-60 -24 -90 -103 -61 -158 42 -81 179 -83 221 -2 20 38
19 90 -1 119 -30 42 -108 62 -159 41z m94 -14 c33 -18 51 -54 51 -104 -1 -41
-13 -63 -47 -80 -66 -36 -143 18 -143 100 0 76 71 119 139 84z"/>
<path d="M1582 1503 c4 -79 7 -88 32 -110 34 -29 94 -31 127 -4 21 17 25 30
29 110 4 69 2 91 -7 91 -10 0 -13 -24 -13 -85 0 -72 -3 -88 -20 -105 -29 -29
-74 -26 -100 7 -18 24 -21 38 -18 105 3 71 1 78 -16 78 -17 0 -18 -7 -14 -87z"/>
<path d="M1830 1496 c0 -52 -3 -101 -6 -110 -4 -12 0 -16 15 -16 18 0 20 3 11
19 -5 11 -10 53 -10 93 l0 73 94 -94 95 -94 3 111 c2 70 -1 112 -7 112 -6 0
-9 -33 -7 -85 2 -56 0 -85 -7 -85 -6 0 -11 4 -11 8 0 4 -38 43 -85 86 l-85 77
0 -95z"/>
<path d="M2105 1480 c0 -108 0 -110 23 -110 20 0 21 3 12 21 -7 12 -10 57 -8
110 2 74 0 89 -12 89 -12 0 -15 -19 -15 -110z"/>
<path d="M2197 1543 c13 -27 37 -77 52 -113 l29 -65 54 113 c48 100 52 112 34
112 -10 0 -17 -3 -13 -6 4 -5 -56 -161 -67 -172 -2 -1 -19 38 -37 88 -28 74
-38 90 -55 90 l-22 0 25 -47z"/>
<path d="M2415 1480 l0 -110 56 0 c41 0 58 4 63 15 6 18 -5 20 -21 4 -7 -7
-23 -9 -37 -5 -23 6 -26 11 -26 52 l0 46 35 -4 c24 -3 35 0 35 9 0 8 -13 13
-35 13 -34 0 -35 1 -35 41 l0 42 40 -6 c22 -3 40 -1 40 4 0 5 -26 9 -57 9
l-58 0 0 -110z"/>
<path d="M2935 1480 c0 -103 1 -110 20 -110 19 0 20 7 20 110 0 103 -1 110
-20 110 -19 0 -20 -7 -20 -110z"/>
<path d="M3745 1480 c0 -108 0 -110 23 -110 19 0 21 3 12 19 -5 11 -10 36 -10
56 l0 37 40 -4 c28 -2 40 0 40 9 0 8 -14 13 -40 13 l-40 0 0 41 0 42 45 -5
c25 -3 45 -2 45 3 0 5 -26 9 -57 9 l-58 0 0 -110z"/>
<path d="M1655 1311 c-51 -24 -81 -56 -100 -110 -45 -129 18 -269 135 -301 47
-13 146 -8 162 8 13 13 28 83 17 76 -5 -3 -9 -11 -9 -18 0 -29 -40 -50 -94
-50 -67 0 -117 30 -154 92 -23 40 -27 58 -27 122 1 124 48 180 153 180 68 0
109 -21 121 -63 9 -30 9 -30 10 19 l1 51 -46 7 c-77 10 -127 7 -169 -13z"/>
<path d="M2043 1311 c-88 -5 -101 -8 -93 -21 12 -19 13 -242 1 -293 l-9 -38
106 3 c106 3 107 3 110 28 l3 25 -16 -22 c-13 -19 -26 -23 -70 -23 -74 0 -85
13 -85 101 l0 69 57 0 c38 0 62 -5 75 -17 17 -15 18 -15 18 10 0 26 -1 26 -72
24 l-73 -2 0 70 0 70 63 0 c51 0 67 -4 78 -20 13 -18 14 -17 14 13 0 18 -1 31
-2 30 -2 -1 -49 -4 -105 -7z"/>
<path d="M2240 1168 c0 -86 -4 -168 -10 -182 -9 -25 -8 -26 28 -26 27 0 33 3
22 10 -12 7 -16 39 -20 140 -3 71 -3 130 0 130 3 0 68 -63 145 -140 77 -77
143 -140 147 -140 5 0 8 73 8 163 0 113 4 167 12 175 9 9 5 12 -20 12 -29 0
-32 -2 -22 -19 5 -11 10 -77 10 -148 l-1 -128 -149 155 -149 155 -1 -157z"/>
<path d="M2630 1312 c0 -6 -3 -17 -6 -26 -6 -14 -3 -14 22 -1 16 8 48 15 72
15 l42 0 0 -158 c0 -110 -4 -162 -12 -170 -9 -9 -2 -12 32 -12 34 0 41 3 32
12 -8 8 -12 61 -12 171 l0 160 56 -6 c37 -4 60 -12 69 -24 12 -16 13 -15 12
10 l-2 27 -137 0 c-75 0 -143 3 -152 6 -9 3 -16 2 -16 -4z"/>
<path d="M3435 1224 c-81 -211 -93 -239 -109 -249 -22 -14 -38 -2 -110 79 -51
57 -57 68 -44 79 61 50 65 132 7 162 -36 19 -189 21 -171 3 15 -15 17 -291 2
-319 -10 -17 -7 -19 32 -19 30 0 39 3 29 9 -10 6 -16 33 -19 75 l-4 66 40 0
c37 0 43 -4 77 -50 61 -83 88 -100 155 -100 46 0 58 3 54 13 -3 8 5 39 16 70
l21 57 59 0 58 0 25 -62 c18 -45 22 -65 13 -70 -6 -4 11 -8 38 -8 47 0 48 0
28 18 -12 9 -46 80 -78 157 -86 213 -74 204 -119 89z m-280 51 c19 -18 25 -35
25 -70 0 -54 -25 -85 -69 -85 -57 0 -61 5 -61 89 0 43 3 81 7 84 16 17 75 6
98 -18z m343 -98 c12 -33 22 -61 22 -63 0 -2 -22 -4 -50 -4 -27 0 -50 4 -50 8
0 23 43 132 50 125 3 -4 16 -34 28 -66z"/>
<path d="M3718 1298 c15 -15 17 -274 2 -312 l-10 -26 99 0 c103 0 112 4 111
48 -1 14 -3 13 -12 -3 -16 -29 -28 -35 -74 -35 -25 0 -47 6 -54 15 -17 21 -26
252 -12 294 11 31 11 31 -26 31 -28 0 -33 -3 -24 -12z"/>
<path d="M2771 898 c-62 -11 -115 -49 -140 -100 -59 -123 20 -247 164 -256 76
-5 125 10 172 51 60 53 79 130 49 201 -34 82 -134 125 -245 104z m129 -30 c66
-45 92 -115 76 -202 -21 -110 -164 -151 -253 -73 -93 81 -83 229 17 279 50 25
119 23 160 -4z"/>
<path d="M1556 738 c-15 -130 -22 -166 -37 -179 -17 -16 -15 -17 34 -16 29 0
43 2 33 5 -18 4 -18 11 -12 111 4 58 8 115 11 126 2 11 4 22 4 25 1 3 25 -40
55 -95 70 -131 90 -165 98 -165 4 0 38 58 75 130 37 71 71 130 74 130 11 0 32
-252 20 -259 -5 -4 45 -7 112 -8 67 0 111 3 97 6 l-25 7 -3 159 c-2 142 -1
161 15 172 14 11 9 13 -36 13 -48 0 -51 -1 -37 -16 13 -13 16 -41 16 -155 0
-78 -5 -149 -10 -160 -13 -24 -56 -25 -69 -1 -5 9 -17 80 -26 157 -10 77 -21
149 -25 159 -5 15 -25 -14 -84 -127 -42 -81 -80 -147 -84 -147 -4 0 -43 65
-87 145 -44 80 -82 145 -85 145 -3 0 -14 -73 -24 -162z"/>
<path d="M2195 875 c-49 -48 -29 -99 64 -170 83 -64 86 -130 7 -150 -46 -11
-87 7 -97 45 -6 22 -7 20 -8 -11 -1 -42 9 -49 75 -49 55 0 96 20 112 55 28 61
14 86 -101 178 -32 26 -47 45 -47 62 0 63 121 76 143 15 3 -8 6 0 6 18 l1 32
-65 0 c-57 0 -69 -3 -90 -25z"/>
<path d="M2425 875 c-48 -47 -25 -108 65 -170 56 -39 75 -76 58 -113 -26 -54
-126 -54 -148 0 -8 21 -9 20 -9 -8 -1 -37 11 -44 75 -44 76 0 123 38 124 99 0
35 -20 59 -113 134 -32 26 -47 45 -47 62 0 63 121 76 143 15 3 -8 6 0 6 18 l1
32 -65 0 c-57 0 -69 -3 -90 -25z"/>
<path d="M3053 889 c15 -9 17 -26 17 -127 0 -91 4 -125 18 -152 22 -44 72 -70
137 -70 65 0 115 26 137 70 14 27 18 60 18 147 0 88 3 115 16 127 14 15 11 16
-33 16 -37 -1 -44 -3 -30 -11 15 -9 17 -26 17 -132 0 -103 -3 -127 -19 -153
-35 -58 -134 -69 -179 -21 -34 36 -42 72 -42 187 0 93 3 110 18 119 13 8 4 10
-38 10 -42 0 -51 -2 -37 -10z"/>
<path d="M3453 885 c14 -14 17 -39 17 -161 0 -128 -2 -146 -19 -163 -19 -19
-18 -19 43 -19 44 0 55 3 39 9 -21 8 -23 15 -23 80 l0 71 38 -7 c29 -5 51 -22
103 -78 l66 -71 109 -2 c60 -1 98 1 84 5 l-25 7 -3 159 c-2 142 -1 161 15 172
14 11 8 13 -38 13 -41 -1 -50 -3 -36 -11 15 -9 17 -28 17 -162 0 -84 -4 -158
-9 -166 -6 -10 -19 -12 -44 -7 -28 5 -51 23 -101 78 l-65 71 30 35 c25 28 30
41 27 74 -5 64 -37 82 -150 87 -86 3 -90 2 -75 -14z m165 -32 c26 -29 30 -88
6 -121 -12 -18 -25 -22 -65 -22 l-49 0 0 84 c0 72 3 85 18 89 30 7 66 -4 90
-30z"/>
<path d="M1150 620 c0 -5 5 -10 10 -10 6 0 10 5 10 10 0 6 -4 10 -10 10 -5 0
-10 -4 -10 -10z"/>
</g>
</svg>
